<svg width="18" height="16" fill="none" xmlns="http://www.w3.org/2000/svg"><path fill-rule="evenodd" clip-rule="evenodd" d="M3.876 9.69a.65.65 0 00.117.029c.25.6.5 1.2.747 1.801.445 1.082.894 2.196.992 2.517.123.394.252.662.394.845.073.094.157.177.256.24a1.035 1.035 0 00.868.087c.095-.033.186-.078.27-.135l.004-.002 2.5-1.585 2.89 2.251a.676.676 0 00.137.084c.347.153.683.207 1 .164.315-.045.565-.18.752-.332.214-.175.385-.4.5-.655l.007-.02.003-.007.002-.003v-.003a.69.69 0 00.036-.12l2.637-13.52A.69.69 0 0018 1.194c0-.396-.147-.773-.491-1-.296-.196-.624-.205-.832-.189-.223.018-.43.074-.569.12a3.028 3.028 0 00-.23.084l-.01.004-14.788 5.9h-.002c-.05.02-.1.04-.148.063a2.22 2.22 0 00-.336.19c-.201.14-.664.524-.585 1.157.062.504.402.814.61.964.113.082.22.14.3.179.036.018.112.049.145.063l.008.003 2.804.959zm12.51-8.235h-.002a.704.704 0 01-.023.01L1.555 7.373a.73.73 0 01-.023.009l-.01.002a.986.986 0 00-.079.036c.025.015.05.028.076.04l2.78.951c.05.017.098.04.142.069l9.182-5.467.009-.005c.035-.022.072-.042.11-.06.063-.034.165-.083.28-.119a.938.938 0 01.57-.012.755.755 0 01.348.234c.092.11.152.243.173.386a.768.768 0 01.003.381c-.063.248-.232.44-.388.588-.133.126-1.854 1.814-3.552 3.48l-2.312 2.268-.411.405 5.195 4.052c.07.03.147.042.223.036a.202.202 0 00.103-.047.446.446 0 00.091-.108l.002-.001 2.557-13.114c-.08.02-.16.045-.236.077l-.002.001zM8.9 12.608L7.863 11.8l-.252 1.624 1.289-.816zm-1.99-2.411l1.031-1.013 2.312-2.27.861-.843-5.769 3.435.031.073c.364.874.724 1.75 1.08 2.628l.25-1.62a.674.674 0 01.204-.39z" fill="#fff"/></svg>