<svg width="18" height="18" fill="none" xmlns="http://www.w3.org/2000/svg"><path d="M15.377 2.619A8.917 8.917 0 009.037 0C4.096 0 .071 4.005.071 8.92a8.91 8.91 0 001.194 4.455L0 18l4.749-1.242a9.002 9.002 0 004.287 1.089c4.939 0 8.964-4.005 8.964-8.919a8.84 8.84 0 00-2.623-6.309zm-6.34 13.716c-1.34 0-2.651-.36-3.8-1.035l-.271-.162-2.822.738.75-2.736-.18-.279a7.41 7.41 0 01-1.14-3.942c0-4.086 3.347-7.416 7.453-7.416 1.99 0 3.862.774 5.264 2.178a7.362 7.362 0 012.18 5.247c.018 4.086-3.328 7.407-7.435 7.407zm4.088-5.544c-.226-.108-1.33-.648-1.529-.729-.208-.072-.353-.108-.507.108-.153.225-.578.729-.705.873-.127.153-.262.171-.489.054-.226-.108-.95-.351-1.8-1.107-.669-.594-1.112-1.323-1.248-1.548-.126-.225-.018-.342.1-.459.1-.099.226-.261.334-.387.109-.126.154-.225.227-.369.072-.153.036-.279-.019-.387a73.825 73.825 0 01-.687-1.656c-.18-.432-.37-.378-.507-.387h-.434a.814.814 0 00-.597.279c-.199.225-.778.765-.778 1.863 0 1.098.805 2.16.914 2.304.109.153 1.583 2.403 3.826 3.366.534.234.95.369 1.275.468.534.171 1.023.144 1.412.09.434-.063 1.33-.54 1.51-1.062.19-.522.19-.963.127-1.062-.064-.099-.2-.144-.425-.252z" fill="#fff"/></svg>