<svg width="46" height="46" fill="none" xmlns="http://www.w3.org/2000/svg"><path d="M13.282 32.898a1.433 1.433 0 002.032 0l17.412-17.544a1.438 1.438 0 00-2.033-2.032L13.282 30.866a1.435 1.435 0 000 2.032zm8.095-3.06c.475 2.094-.038 4.149-1.656 5.768l-5.806 5.625a6.43 6.43 0 01-4.573 1.892 6.43 6.43 0 01-4.574-1.892c-2.52-2.522-2.52-6.625-.014-9.13l5.672-5.85a6.432 6.432 0 014.573-1.893c.59 0 1.16.105 1.715.257l2.244-2.243a9.36 9.36 0 00-3.959-.89c-2.39 0-4.782.913-6.606 2.736l-5.657 5.836c-3.648 3.647-3.648 9.562 0 13.21A9.31 9.31 0 009.342 46a9.31 9.31 0 006.606-2.736l5.792-5.61c2.792-2.79 3.394-6.679 1.916-10.092l-2.28 2.276zM43.263 2.736A9.318 9.318 0 0036.657 0a9.311 9.311 0 00-6.606 2.736L24.26 8.347c-2.892 2.893-3.483 7.207-1.788 10.69l2.23-2.23c-.66-2.205-.153-4.686 1.576-6.413l5.805-5.625a6.436 6.436 0 014.575-1.894c1.726 0 3.352.674 4.572 1.894 2.521 2.522 2.521 6.626.015 9.13l-5.806 5.805a6.422 6.422 0 01-4.572 1.892c-.44 0-.828.045-1.25-.042l-2.29 2.29c1.144.477 2.318.627 3.54.627 2.39 0 4.78-.91 6.606-2.736l5.791-5.789c3.648-3.647 3.648-9.56 0-13.209l-.001-.001z" fill="#FBD8D5"/></svg>