<svg width="34" height="34" fill="none" xmlns="http://www.w3.org/2000/svg"><path d="M10.197 23.928a1.004 1.004 0 001.423 0l12.188-12.28a1.006 1.006 0 00-1.423-1.423L10.197 22.506a1.005 1.005 0 000 1.422zm5.667-2.141c.332 1.465-.027 2.904-1.16 4.037l-4.063 3.937a4.501 4.501 0 01-3.202 1.325c-1.21 0-2.346-.47-3.201-1.325-1.765-1.765-1.765-4.637-.01-6.39l3.97-4.095a4.503 4.503 0 013.201-1.325c.414 0 .812.073 1.2.18l1.571-1.57a6.521 6.521 0 00-7.395 1.293l-3.96 4.084a6.539 6.539 0 109.248 9.247l4.055-3.927c1.954-1.954 2.376-4.675 1.341-7.064l-1.595 1.593zm15.32-18.972A6.523 6.523 0 0026.56.9a6.518 6.518 0 00-4.625 1.915l-4.053 3.928a6.537 6.537 0 00-1.252 7.483l1.562-1.561c-.462-1.543-.108-3.28 1.102-4.49l4.064-3.937a4.505 4.505 0 013.203-1.325 4.5 4.5 0 013.2 1.325c1.765 1.766 1.765 4.638.01 6.392l-4.064 4.062a4.495 4.495 0 01-3.2 1.325c-.308 0-.58.031-.875-.029l-1.603 1.603c.8.333 1.623.439 2.478.439a6.519 6.519 0 004.624-1.915l4.054-4.053a6.537 6.537 0 000-9.246h-.001z" fill="#FBD8D5"/></svg>