<svg width="46" height="46" fill="none" xmlns="http://www.w3.org/2000/svg"><g clip-path="url(#clip0_359_396)"><path d="M12.936 5.127c1.409 0 3.958.674 8.09 4.745l2.049 2.017 2.018-2.05c2.87-2.915 5.923-4.726 7.968-4.726 2.759 0 4.934.943 7.054 3.059a10.47 10.47 0 013.1 7.462c0 2.82-1.099 5.472-3.119 7.488-.164.166-8.849 9.536-16.126 17.39a1.356 1.356 0 01-.943.373c-.205 0-.592-.046-.934-.364C20.321 38.55 7.468 24.26 5.974 22.767a10.48 10.48 0 01-3.1-7.467c0-2.819 1.1-5.468 3.102-7.463 1.945-1.944 4.222-2.71 6.96-2.71zm0-2.875c-3.438 0-6.469 1.028-8.991 3.55-5.26 5.245-5.26 13.75 0 18.999C5.447 26.303 20.02 42.515 20.02 42.515a4.24 4.24 0 003.009 1.243 4.235 4.235 0 003.006-1.243s15.942-17.207 16.111-17.378c5.257-5.25 5.257-13.757 0-19.002-2.61-2.606-5.527-3.899-9.083-3.899-3.399 0-7.188 2.71-10.018 5.585-2.92-2.875-6.591-5.569-10.107-5.569h-.002z" fill="#FBD8D5"/></g><defs><clipPath id="clip0_359_396"><path fill="#fff" d="M0 0h46v46H0z"/></clipPath></defs></svg>