<svg width="34" height="33" fill="none" xmlns="http://www.w3.org/2000/svg"><g clip-path="url(#clip0_384_378)"><path d="M9.955 3.589c.986 0 2.77.472 5.663 3.322l1.434 1.411 1.413-1.435c2.008-2.04 4.145-3.308 5.577-3.308 1.931 0 3.454.66 4.938 2.141a7.329 7.329 0 012.17 5.224 7.342 7.342 0 01-2.183 5.241c-.115.117-6.194 6.676-11.288 12.173a.95.95 0 01-.66.261.955.955 0 01-.654-.254C15.124 26.985 6.127 16.98 5.082 15.937a7.336 7.336 0 01-2.17-5.227c0-1.973.77-3.828 2.17-5.224 1.362-1.36 2.956-1.897 4.873-1.897zm0-2.013c-2.407 0-4.528.72-6.294 2.485a9.387 9.387 0 000 13.3c1.051 1.051 11.253 12.4 11.253 12.4.581.581 1.344.87 2.106.87.762 0 1.521-.289 2.104-.87 0 0 11.16-12.045 11.278-12.165a9.393 9.393 0 000-13.302c-1.827-1.824-3.87-2.729-6.359-2.729-2.378 0-5.03 1.897-7.012 3.91-2.044-2.013-4.614-3.898-7.075-3.898h-.001z" fill="#FBD8D5"/></g><defs><clipPath id="clip0_384_378"><path fill="#fff" transform="translate(.9)" d="M0 0h32.2v32.2H0z"/></clipPath></defs></svg>