<svg width="46" height="46" fill="none" xmlns="http://www.w3.org/2000/svg"><path d="M45.826 37.735l-8.397-15.56a15.778 15.778 0 001.336-6.367C38.765 7.078 31.703 0 22.99 0 14.276 0 7.214 7.079 7.214 15.808c0 2.32.503 4.522 1.397 6.505L.177 37.728a1.44 1.44 0 00.113 1.559c.34.451.916.663 1.467.533l7.201-1.655 2.466 6.88a1.436 1.436 0 001.35.952c.525 0 1.013-.289 1.264-.758l7.34-13.702a15.715 15.715 0 003.089.01l7.5 13.705a1.434 1.434 0 002.608-.204l2.466-6.88 7.203 1.655a1.42 1.42 0 001.463-.53 1.442 1.442 0 00.12-1.555v-.003zm-32.79 3.297l-1.805-5.04a1.43 1.43 0 00-1.671-.915l-5.327 1.225 6.071-11.098a15.79 15.79 0 008.136 5.743l-5.404 10.085zm-2.94-25.224c0-7.125 5.786-12.92 12.894-12.92 7.109 0 12.893 5.795 12.893 12.92 0 7.124-5.784 12.92-12.894 12.92s-12.893-5.797-12.893-12.92zm26.345 19.269a1.428 1.428 0 00-1.672.914l-1.818 5.076-5.523-10.09a15.806 15.806 0 008.318-5.873l6.047 11.202-5.352-1.23z" fill="#FBD8D5"/></svg>