<svg width="34" height="34" fill="none" xmlns="http://www.w3.org/2000/svg"><path d="M32.978 27.315L27.1 16.423c.6-1.364.936-2.87.936-4.457C28.036 5.854 23.092.9 16.993.9c-6.1 0-11.044 4.955-11.044 11.066 0 1.624.353 3.165.979 4.553L1.024 27.31c-.191.347-.159.775.08 1.091a1 1 0 001.026.373l5.04-1.158 1.726 4.816a1.005 1.005 0 001.83.136l5.14-9.592a11.004 11.004 0 002.16.007l5.25 9.594a1.004 1.004 0 001.827-.143l1.725-4.816 5.043 1.159a.994.994 0 001.024-.372c.24-.314.271-.74.084-1.088v-.002zm-22.953 2.308l-1.263-3.528a1 1 0 00-1.17-.641l-3.729.857 4.25-7.768a11.053 11.053 0 005.695 4.02l-3.783 7.06zM7.967 11.966c0-4.987 4.05-9.045 9.026-9.045s9.025 4.058 9.025 9.045-4.05 9.044-9.026 9.044c-4.977 0-9.025-4.058-9.025-9.044zm18.441 13.488a1 1 0 00-1.17.64l-1.272 3.553-3.866-7.063a11.064 11.064 0 005.822-4.111l4.233 7.842-3.747-.861z" fill="#FBD8D5"/></svg>