<svg width="46" height="46" fill="none" xmlns="http://www.w3.org/2000/svg"><g clip-path="url(#clip0_359_390)"><path d="M43.316 2.23C41.75.73 40.023-.03 38.178-.03c-2.883 0-4.988 1.863-5.563 2.433-.81.803-28.442 28.446-28.442 28.446a1.48 1.48 0 00-.38.655C3.171 33.807.05 44.024.017 44.128a1.48 1.48 0 00.368 1.48 1.452 1.452 0 001.47.353c.106-.034 10.653-3.443 12.39-3.962.228-.069.438-.192.607-.36 1.097-1.084 26.869-26.57 28.58-28.337C45.2 11.48 46.08 9.58 46.045 7.66c-.036-1.896-.955-3.721-2.733-5.428l.003-.001zM32.156 7c.733.177 2.46.758 4.224 2.538 1.783 1.798 2.264 3.854 2.355 4.322a16336.898 16336.898 0 01-23.792 23.57 11.826 11.826 0 00-2.471-3.673c-1.504-1.515-3.035-2.37-4.215-2.852 5.076-5.078 18.332-18.339 23.898-23.903l.002-.001zM6.307 33.33c.79.21 2.431.82 4.103 2.504a8.976 8.976 0 012.169 3.605c-1.998.643-6.374 2.152-9.153 3.05.824-2.712 2.216-6.932 2.881-9.16zm35.04-22.083l-.272.276a11.871 11.871 0 00-2.633-4.065c-1.41-1.422-2.84-2.26-3.986-2.756.098-.096.173-.173.203-.201.164-.163 1.657-1.59 3.518-1.59 1.07 0 2.123.489 3.126 1.452 1.19 1.143 1.806 2.27 1.826 3.35.02 1.105-.581 2.293-1.783 3.534h.002z" fill="#FBD8D5"/></g><defs><clipPath id="clip0_359_390"><path fill="#fff" d="M0 0h46v46H0z"/></clipPath></defs></svg>