<svg width="34" height="34" fill="none" xmlns="http://www.w3.org/2000/svg"><g clip-path="url(#clip0_384_353)"><path d="M31.221 2.462C30.125 1.412 28.916.879 27.625.879c-2.018 0-3.492 1.304-3.894 1.703-.568.562-19.91 19.912-19.91 19.912a1.035 1.035 0 00-.265.459C3.12 24.565.934 31.718.912 31.79c-.112.366-.012.766.258 1.035a1.017 1.017 0 001.03.248c.073-.024 7.456-2.41 8.671-2.773.16-.049.307-.135.426-.253.768-.759 18.807-18.598 20.005-19.835 1.239-1.276 1.855-2.606 1.83-3.95-.025-1.327-.668-2.605-1.912-3.8h.002zM23.41 5.8c.512.124 1.722.53 2.956 1.777 1.248 1.258 1.585 2.697 1.649 3.025A11392.34 11392.34 0 0111.36 27.101a8.279 8.279 0 00-1.73-2.571 8.908 8.908 0 00-2.95-1.997L23.409 5.801zM5.315 24.231c.553.147 1.701.573 2.871 1.753a6.284 6.284 0 011.519 2.523c-1.399.45-4.462 1.507-6.407 2.135.577-1.898 1.55-4.852 2.017-6.411zM29.843 8.773l-.191.193a8.31 8.31 0 00-1.843-2.846 8.931 8.931 0 00-2.79-1.929c.068-.067.12-.12.142-.14.114-.114 1.16-1.113 2.462-1.113.75 0 1.486.342 2.189 1.016.833.8 1.264 1.589 1.278 2.346.014.772-.407 1.605-1.248 2.473z" fill="#FBD8D5"/></g><defs><clipPath id="clip0_384_353"><path fill="#fff" transform="translate(.9 .9)" d="M0 0h32.2v32.2H0z"/></clipPath></defs></svg>