<svg width="46" height="46" fill="none" xmlns="http://www.w3.org/2000/svg"><g clip-path="url(#clip0_359_394)"><path d="M43.147 18.644l-3.69-.818c-.288-.92-.665-1.8-1.096-2.646l1.997-3.325c.744-1.192 1.121-2.943 0-4.067l-2.034-2.032c-1.121-1.123-3.016-.92-4.16-.127l-3.236 2.062c-.84-.436-1.718-.81-2.63-1.104l-.827-3.735C27.223 1.482 26.026 0 24.437 0h-2.875c-1.587 0-2.56 1.505-2.875 2.875l-.922 3.69c-.975.31-1.91.707-2.8 1.177L11.646 5.63c-1.143-.793-3.04-.994-4.16.127L5.451 7.788c-1.122 1.124-.746 2.875 0 4.066l2.1 3.5a17.157 17.157 0 00-1.013 2.472l-3.688.818c-1.37.246-2.852 1.445-2.852 3.032v2.875c0 1.589 1.505 2.562 2.875 2.875l3.734.933c.257.792.58 1.552.946 2.29l-2.102 3.505c-.744 1.19-1.12 2.942 0 4.065l2.034 2.032c1.122 1.125 3.016.92 4.16.128l3.325-2.118a17.08 17.08 0 002.818 1.183l.92 3.678c.315 1.37 1.288 2.875 2.875 2.875h2.875c1.588 0 2.786-1.483 3.033-2.853l.83-3.744a17.04 17.04 0 002.599-1.09l3.243 2.068c1.144.793 3.038.995 4.161-.128l2.034-2.033c1.121-1.124.745-2.875 0-4.065l-1.998-3.33c.401-.79.749-1.61 1.03-2.464l3.735-.933C44.495 27.11 46 26.138 46 24.55v-2.875c0-1.587-1.482-2.786-2.853-3.034l-.002.003zm-.02 5.706a1.887 1.887 0 01-.645.276l-5.33 1.33-.494 1.512a14.5 14.5 0 01-.858 2.052l-.722 1.418 2.816 4.696c.18.288.263.545.289.697l-1.892 1.89c-.182-.058-.39-.133-.49-.202l-4.732-3.017-1.47.76c-.71.368-1.437.673-2.162.907l-1.566.506-1.185 5.352c-.055.286-.208.517-.313.6h-2.588a1.86 1.86 0 01-.274-.645l-1.324-5.291-1.533-.486a14.323 14.323 0 01-2.343-.983l-1.477-.78-4.734 3.017c-.194.13-.401.205-.588.205L7.627 36.33a1.91 1.91 0 01.26-.645l2.94-4.9-.7-1.408a14.433 14.433 0 01-.786-1.905l-.493-1.512-5.277-1.32a2.033 2.033 0 01-.697-.287v-2.674l.007.001c.049 0 .284-.168.481-.204l5.423-1.2.497-1.586a14.11 14.11 0 01.845-2.055l.7-1.409-2.91-4.849a2.041 2.041 0 01-.288-.697l1.89-1.889c.184.06.39.134.489.201l4.821 3.074 1.476-.78a14.37 14.37 0 012.332-.98l1.528-.486 1.311-5.245c.076-.332.199-.572.288-.697h2.672c-.02.029.165.28.204.487l1.208 5.454 1.565.506c.735.237 1.47.546 2.19.919l1.47.764 4.635-2.95c.194-.133.4-.206.587-.206l1.888 1.834c-.025.15-.104.397-.26.647l-2.847 4.738.726 1.42c.393.766.69 1.485.913 2.198l.497 1.587 5.315 1.179c.322.059.572.246.624.346l-.025 2.549zm-20.108-9.99c-4.774 0-8.658 3.878-8.658 8.64 0 4.762 3.884 8.64 8.658 8.64 4.774 0 8.658-3.878 8.658-8.639 0-4.762-3.884-8.639-8.658-8.639v-.001zM23 28.75A5.757 5.757 0 0117.25 23 5.756 5.756 0 0123 17.25 5.756 5.756 0 0128.75 23 5.756 5.756 0 0123 28.75z" fill="#FBD8D5"/></g><defs><clipPath id="clip0_359_394"><path fill="#fff" d="M0 0h46v46H0z"/></clipPath></defs></svg>