<svg width="34" height="34" fill="none" xmlns="http://www.w3.org/2000/svg"><g clip-path="url(#clip0_384_366)"><path d="M31.102 13.951l-2.582-.572a11.924 11.924 0 00-.767-1.853L29.15 9.2c.522-.834.785-2.06 0-2.847L27.727 4.93c-.785-.785-2.112-.644-2.913-.088L22.55 6.284a12.05 12.05 0 00-1.84-.773l-.58-2.614C19.956 1.937 19.12.9 18.006.9h-2.012c-1.111 0-1.792 1.054-2.013 2.013l-.646 2.583c-.682.217-1.336.495-1.96.824L9.053 4.84c-.8-.555-2.128-.695-2.913.09L4.717 6.351c-.786.787-.523 2.013 0 2.846l1.47 2.45c-.276.556-.52 1.13-.71 1.73l-2.582.573C1.936 14.123.9 14.963.9 16.075v2.012c0 1.112 1.053 1.793 2.012 2.013l2.615.653a11.9 11.9 0 00.662 1.603l-1.471 2.453c-.522.833-.785 2.06 0 2.846l1.423 1.422c.785.787 2.112.644 2.913.09l2.327-1.483c.627.33 1.285.611 1.972.828l.644 2.575c.22.959.902 2.012 2.013 2.012h2.012c1.112 0 1.95-1.038 2.123-1.997l.581-2.62a11.982 11.982 0 001.82-.763l2.27 1.447c.8.555 2.127.696 2.913-.09l1.423-1.422c.785-.787.522-2.013 0-2.846l-1.398-2.332c.28-.552.524-1.127.72-1.724l2.615-.653c.96-.22 2.013-.901 2.013-2.013v-2.012c0-1.111-1.038-1.95-1.997-2.124l-.002.002zm-.014 3.994a1.322 1.322 0 01-.45.194l-3.732.931-.346 1.058c-.156.477-.358.96-.6 1.437l-.506.992 1.972 3.287c.126.202.184.382.202.488l-1.324 1.323a1.56 1.56 0 01-.343-.141l-3.313-2.112-1.03.532a9.914 9.914 0 01-1.512.635l-1.097.354-.829 3.746c-.038.2-.146.363-.22.42h-1.81a1.3 1.3 0 01-.192-.45l-.927-3.705-1.073-.34a10.01 10.01 0 01-1.64-.688l-1.035-.547-3.313 2.112a.76.76 0 01-.412.144L6.24 26.331a1.35 1.35 0 01.182-.451l2.058-3.43-.49-.986c-.228-.465-.41-.9-.55-1.333l-.346-1.059-3.694-.924c-.232-.052-.4-.14-.488-.2v-1.872h.005c.035 0 .2-.117.338-.142l3.795-.84.348-1.11c.142-.452.335-.923.592-1.44l.49-.985-2.037-3.394a1.43 1.43 0 01-.202-.489l1.323-1.322c.13.042.273.094.342.141l3.375 2.151 1.034-.545c.53-.28 1.08-.51 1.632-.686l1.07-.34.917-3.672c.054-.233.14-.4.202-.488h1.87c-.014.02.116.196.143.341l.845 3.818 1.096.354c.514.166 1.03.382 1.533.643l1.029.535 3.244-2.066a.752.752 0 01.412-.143l1.32 1.284a1.312 1.312 0 01-.181.452l-1.993 3.317.509.994a9.77 9.77 0 01.639 1.539l.348 1.11 3.72.826c.225.04.4.172.436.242l-.017 1.784zm-14.075-6.992c-3.342 0-6.06 2.714-6.06 6.047 0 3.334 2.718 6.048 6.06 6.048 3.342 0 6.06-2.714 6.06-6.047 0-3.333-2.718-6.047-6.06-6.047v-.001zM17 21.025A4.03 4.03 0 0112.975 17 4.029 4.029 0 0117 12.975 4.029 4.029 0 0121.025 17 4.029 4.029 0 0117 21.025z" fill="#FBD8D5"/></g><defs><clipPath id="clip0_384_366"><path fill="#fff" transform="translate(.9 .9)" d="M0 0h32.2v32.2H0z"/></clipPath></defs></svg>