<svg width="46" height="46" fill="none" xmlns="http://www.w3.org/2000/svg"><g clip-path="url(#clip0_359_392)"><path d="M9.42 39.678c-.903 1.878-1.474 3.13-6.5 3.312.143-4.85 1.069-5.37 2.92-6.293.775-.388 1.743-.87 2.79-1.673l-1.752-2.236c-.826.636-1.587.97-2.321 1.334C1.473 35.66.02 37.174.02 44.393l.025 1.47 1.413-.032c7.62 0 9.044-1.722 10.472-4.686.312-.65.486-1.09 1.013-1.966l-2.132-1.936c-.638.873-1.037 1.7-1.391 2.432v.003zM31.668 8.476a5.771 5.771 0 00-5.766 5.764 5.774 5.774 0 005.766 5.766 5.774 5.774 0 005.766-5.766 5.772 5.772 0 00-5.766-5.764zm0 8.644a2.883 2.883 0 01-2.88-2.878 2.882 2.882 0 012.88-2.878 2.882 2.882 0 012.88 2.878 2.881 2.881 0 01-2.88 2.878zM45.99 1.317a1.438 1.438 0 00-1.33-1.345s-8.044-.587-15.784 2.304c-2.827 1.057-5.154 2.728-7.327 5.263-1.81 2.113-3.61 5.93-5.199 9.102-.614 1.223-1.2 2.395-1.698 3.289H6.656c-.412 0-.803.177-1.076.483L.31 26.124a1.44 1.44 0 00.755 2.356l8.578 1.961c.585.722 1.558 1.801 3.116 3.53l3.25 3.603 1.75 7.4a1.432 1.432 0 001.397 1.106c.34 0 .671-.12.936-.347l5.326-5.298c.317-.272.502-.672.502-1.092v-7.417c.715-.444 1.985-1.13 3.18-1.798 3.254-1.819 8.114-4.084 10.128-5.875 2.837-2.522 3.87-4.37 4.884-7.103 2.413-6.5 1.902-15.455 1.878-15.833zm-4.571 14.83c-.886 2.386-1.688 3.812-4.1 5.955-1.781 1.583-6.654 3.855-9.623 5.516-2.215 1.237-3.542 1.96-4.124 2.436a1.433 1.433 0 00-.529 1.113v7.514l-3.033 3.333-1.292-5.462a1.44 1.44 0 00-.332-.631 2733.99 2733.99 0 01-6.944-7.711 1.44 1.44 0 00-.789-.487l-6.585-1.507 3.23-3.414h8.178c.5 0 .965-.26 1.225-.684.632-1.03 1.365-2.496 2.216-4.19 1.44-2.873 3.232-6.673 4.813-8.52 1.869-2.178 3.765-3.548 6.15-4.44 5.306-1.982 10.78-2.19 13.282-2.172.046 2.651-.053 8.796-1.745 13.353l.002-.001z" fill="#FBD8D5"/></g><defs><clipPath id="clip0_359_392"><path fill="#fff" d="M0 0h46v46H0z"/></clipPath></defs></svg>