<svg width="34" height="34" fill="none" xmlns="http://www.w3.org/2000/svg"><g clip-path="url(#clip0_384_360)"><path d="M7.494 28.674c-.632 1.315-1.032 2.191-4.55 2.319.1-3.395.748-3.76 2.043-4.405.544-.272 1.22-.61 1.953-1.172l-1.225-1.564c-.579.444-1.111.678-1.625.933-2.16 1.077-3.176 2.137-3.176 7.19l.017 1.028.99-.022c5.333 0 6.33-1.205 7.33-3.28.218-.455.34-.763.71-1.376L8.467 26.97c-.447.61-.727 1.19-.974 1.703v.002zM23.067 6.833a4.04 4.04 0 00-4.036 4.035 4.042 4.042 0 004.037 4.036 4.041 4.041 0 004.035-4.036 4.04 4.04 0 00-4.036-4.035zm0 6.05a2.018 2.018 0 01-2.015-2.014c0-1.11.904-2.015 2.015-2.015 1.112 0 2.016.905 2.016 2.015s-.904 2.014-2.015 2.014zM33.093 1.822a1.006 1.006 0 00-.931-.942S26.531.47 21.113 2.493c-1.979.74-3.608 1.91-5.128 3.684-1.268 1.479-2.528 4.152-3.64 6.371-.43.857-.84 1.677-1.189 2.303H5.56a1.01 1.01 0 00-.753.338l-3.689 3.998a1.008 1.008 0 00.528 1.649l6.005 1.372c.41.506 1.09 1.261 2.181 2.472l2.275 2.521 1.225 5.18a1.003 1.003 0 001.633.532l3.728-3.71c.223-.19.352-.47.352-.763v-5.192c.5-.311 1.39-.791 2.225-1.259 2.279-1.273 5.68-2.859 7.09-4.113 1.987-1.765 2.71-3.059 3.42-4.971 1.688-4.55 1.33-10.819 1.314-11.083zm-3.2 10.381c-.62 1.67-1.181 2.668-2.87 4.168-1.247 1.108-4.658 2.699-6.736 3.861-1.55.867-2.48 1.373-2.887 1.706-.234.19-.37.477-.37.779v5.26l-2.123 2.333-.905-3.824a1.009 1.009 0 00-.232-.442c-1.85-2.05-4.646-5.15-4.86-5.397a1.01 1.01 0 00-.553-.341l-4.61-1.055 2.262-2.39h5.724c.35 0 .675-.182.857-.479.443-.72.956-1.747 1.552-2.933 1.008-2.01 2.262-4.671 3.369-5.963 1.308-1.526 2.635-2.484 4.305-3.108 3.714-1.388 7.546-1.534 9.297-1.52.033 1.855-.037 6.156-1.221 9.346z" fill="#FBD8D5"/></g><defs><clipPath id="clip0_384_360"><path fill="#fff" transform="translate(.9 .9)" d="M0 0h32.2v32.2H0z"/></clipPath></defs></svg>