<svg width="101" height="58" fill="none" xmlns="http://www.w3.org/2000/svg"><path d="M17.728 38.488h-1.792V43H13.36V31.8h2.576v4.528h1.856l2.944-4.528h2.736l-3.664 5.408L23.584 43H20.64l-2.912-4.512zm12.153-4.224c.8 0 1.526.187 2.176.56.662.363 1.179.88 1.552 1.552.374.661.56 1.435.56 2.32 0 .885-.186 1.664-.56 2.336a4.02 4.02 0 01-1.552 1.552c-.65.363-1.376.544-2.176.544-1.098 0-1.962-.347-2.592-1.04v4.016h-2.496V34.392h2.384v.992c.619-.747 1.52-1.12 2.704-1.12zm-.432 6.816c.64 0 1.163-.213 1.568-.64.416-.437.624-1.019.624-1.744 0-.725-.208-1.301-.624-1.728-.405-.437-.928-.656-1.568-.656s-1.168.219-1.584.656c-.405.427-.608 1.003-.608 1.728 0 .725.203 1.307.608 1.744.416.427.944.64 1.584.64zm9.673-6.816c1.334 0 2.358.32 3.072.96.715.63 1.072 1.584 1.072 2.864V43H40.93v-1.072c-.47.8-1.344 1.2-2.624 1.2-.661 0-1.237-.112-1.728-.336-.48-.224-.848-.533-1.104-.928a2.415 2.415 0 01-.384-1.344c0-.8.299-1.43.896-1.888.608-.459 1.542-.688 2.8-.688h1.984c0-.544-.165-.96-.496-1.248-.33-.299-.827-.448-1.488-.448-.459 0-.912.075-1.36.224-.437.139-.81.33-1.12.576l-.896-1.744c.47-.33 1.03-.587 1.68-.768a7.651 7.651 0 012.032-.272zm-.192 7.184a2.22 2.22 0 001.136-.288c.33-.203.566-.496.704-.88v-.88h-1.712c-1.024 0-1.536.336-1.536 1.008 0 .32.123.576.368.768.256.181.603.272 1.04.272zm10.6 1.68c-.917 0-1.744-.187-2.48-.56a4.38 4.38 0 01-1.712-1.584c-.405-.672-.608-1.435-.608-2.288 0-.853.203-1.616.608-2.288a4.265 4.265 0 011.712-1.568c.736-.384 1.563-.576 2.48-.576.907 0 1.696.192 2.368.576a3.32 3.32 0 011.488 1.616l-1.936 1.04c-.448-.79-1.093-1.184-1.936-1.184-.65 0-1.189.213-1.616.64-.426.427-.64 1.008-.64 1.744s.214 1.317.64 1.744c.427.427.966.64 1.616.64.854 0 1.499-.395 1.936-1.184l1.936 1.056a3.427 3.427 0 01-1.488 1.6c-.672.384-1.461.576-2.368.576zm5.373-8.736h2.48v5.12l4.192-5.12h2.288V43h-2.48v-5.12L57.207 43h-2.304v-8.608zm17.935 4.112c1.014.341 1.52 1.024 1.52 2.048 0 .779-.293 1.381-.88 1.808-.586.427-1.46.64-2.623.64h-4.593v-8.608h4.4c1.078 0 1.92.197 2.528.592.609.384.913.928.913 1.632 0 .427-.112.805-.337 1.136-.213.32-.522.57-.928.752zm-4.287-.576h1.888c.874 0 1.312-.31 1.312-.928 0-.608-.438-.912-1.313-.912H68.55v1.84zm2.096 3.376c.917 0 1.375-.315 1.375-.944 0-.33-.106-.57-.32-.72-.213-.16-.549-.24-1.007-.24H68.55v1.904h2.096zm10.097-4.16c1.12.01 1.968.261 2.544.752.576.49.864 1.195.864 2.112 0 .96-.326 1.701-.976 2.224-.651.523-1.574.784-2.768.784L76.216 43v-8.608h2.48v2.752h2.048zm4.336-2.752h2.48V43h-2.48v-8.608zm-4.896 6.848c.48.01.848-.09 1.104-.304.256-.213.384-.533.384-.96 0-.416-.128-.72-.384-.912-.246-.192-.614-.293-1.104-.304l-1.488-.016v2.496h1.488zm9.782-6.848h2.48v5.12l4.192-5.12h2.288V43h-2.48v-5.12L92.27 43h-2.304v-8.608zm4.32-.928c-1.878 0-2.822-.827-2.832-2.48h1.632c.01.373.112.667.304.88.202.203.496.304.88.304s.677-.101.88-.304c.213-.213.32-.507.32-.88h1.664c-.011 1.653-.96 2.48-2.848 2.48z" fill="#43442F"/><path d="M82.136 53.464v2.928h-1.74V55H75.86v1.392h-1.74v-2.928h.264c.4-.008.676-.244.828-.708.152-.464.248-1.124.288-1.98l.084-2.232h5.628v4.92h.924zm-4.944-2.556c-.024.656-.076 1.192-.156 1.608-.072.416-.212.732-.42.948h2.724V50.08h-2.112l-.036.828zm9.146 4.188c-.68 0-1.292-.14-1.836-.42a3.22 3.22 0 01-1.26-1.188 3.257 3.257 0 01-.456-1.716c0-.64.152-1.212.456-1.716a3.135 3.135 0 011.26-1.176c.544-.288 1.156-.432 1.836-.432.68 0 1.288.144 1.824.432.536.28.956.672 1.26 1.176.304.504.456 1.076.456 1.716 0 .64-.152 1.212-.456 1.716a3.22 3.22 0 01-1.26 1.188c-.536.28-1.144.42-1.824.42zm0-1.536c.48 0 .872-.16 1.176-.48.312-.328.468-.764.468-1.308s-.156-.976-.468-1.296c-.304-.328-.696-.492-1.176-.492s-.876.164-1.188.492c-.312.32-.468.752-.468 1.296s.156.98.468 1.308c.312.32.708.48 1.188.48zM97.466 55v-3.864l-1.932 3.24h-.792l-1.884-3.252V55h-1.692v-6.456h1.956l2.064 3.732 2.196-3.732h1.752L99.158 55h-1.692z" fill="#A62C21"/><path d="M17.825 2L38.06 22.159H2V53h39" stroke="#A62C21" stroke-width="3" stroke-linecap="round" stroke-linejoin="round"/></svg>