<svg width="67" height="39" fill="none" xmlns="http://www.w3.org/2000/svg"><path d="M11.387 24.53h-1.183v2.98H8.503v-7.396h1.701v2.99h1.226l1.944-2.99h1.807l-2.42 3.571 2.494 3.826h-1.944l-1.924-2.98zm8.027-2.789a2.83 2.83 0 011.437.37c.437.24.779.581 1.025 1.025.247.437.37.948.37 1.532 0 .585-.123 1.1-.37 1.543a2.654 2.654 0 01-1.025 1.025c-.43.24-.909.36-1.437.36-.726 0-1.296-.23-1.712-.688v2.653h-1.648v-7.735h1.574v.655c.409-.493 1.004-.74 1.786-.74zm-.285 4.502c.422 0 .768-.141 1.035-.423.275-.289.412-.673.412-1.152 0-.479-.137-.86-.412-1.141-.267-.289-.613-.433-1.035-.433-.423 0-.772.144-1.046.433-.268.282-.402.662-.402 1.141 0 .48.134.863.402 1.152.274.282.623.423 1.046.423zm6.388-4.502c.88 0 1.557.211 2.029.634.472.416.708 1.046.708 1.892v3.244h-1.543v-.708c-.31.528-.887.792-1.733.792-.437 0-.817-.074-1.141-.222a1.7 1.7 0 01-.73-.613 1.595 1.595 0 01-.253-.887c0-.529.198-.944.592-1.247.402-.303 1.018-.454 1.85-.454h1.31c0-.36-.11-.634-.328-.825-.218-.197-.546-.296-.983-.296-.303 0-.602.05-.898.148a2.29 2.29 0 00-.74.38l-.591-1.151c.31-.218.68-.387 1.11-.507a5.03 5.03 0 011.341-.18zm-.127 4.745c.282 0 .532-.064.75-.19.219-.134.374-.328.466-.582v-.58h-1.131c-.676 0-1.015.221-1.015.665 0 .211.081.38.243.507.17.12.399.18.687.18zm7.001 1.11a3.569 3.569 0 01-1.638-.37 2.894 2.894 0 01-1.13-1.047 2.868 2.868 0 01-.402-1.51c0-.564.134-1.068.402-1.512a2.819 2.819 0 011.13-1.035 3.487 3.487 0 011.638-.38c.599 0 1.12.126 1.564.38.451.246.779.602.983 1.067l-1.279.687c-.296-.522-.722-.782-1.278-.782-.43 0-.786.14-1.068.422-.281.282-.422.666-.422 1.152 0 .486.14.87.422 1.152.282.282.638.423 1.068.423.563 0 .99-.261 1.278-.782l1.279.697a2.263 2.263 0 01-.983 1.057c-.444.253-.965.38-1.564.38zm3.549-5.77h1.638v3.381l2.768-3.381h1.511v5.685H40.22v-3.382l-2.758 3.382H35.94v-5.685zm11.845 2.715c.67.226 1.004.677 1.004 1.353 0 .514-.194.912-.581 1.194-.388.282-.965.423-1.733.423h-3.033v-5.685h2.906c.711 0 1.268.13 1.67.39.401.254.602.613.602 1.078 0 .282-.074.532-.222.75a1.4 1.4 0 01-.613.497zm-2.832-.38H46.2c.578 0 .866-.204.866-.613 0-.401-.288-.602-.866-.602h-1.247v1.215zm1.384 2.23c.606 0 .909-.208.909-.624 0-.218-.07-.377-.211-.475-.141-.106-.363-.159-.666-.159h-1.416v1.258h1.384zm6.669-2.748c.74.007 1.3.173 1.68.497.38.324.57.789.57 1.395 0 .634-.214 1.123-.644 1.468-.43.346-1.039.518-1.828.518l-2.769-.01v-5.685h1.638v1.817h1.353zm2.864-1.817h1.638v5.685h-1.639v-5.685zm-3.234 4.522c.317.007.56-.06.73-.2.168-.141.253-.353.253-.634 0-.275-.085-.476-.254-.603-.162-.127-.405-.194-.729-.2l-.983-.011v1.648h.983zm6.46-4.522h1.638v3.381l2.769-3.381h1.511v5.685h-1.638v-3.382l-2.758 3.382h-1.522v-5.685zm2.854-.613c-1.24 0-1.864-.546-1.87-1.638h1.077c.007.246.074.44.2.581.135.134.328.2.582.2.254 0 .447-.066.581-.2.141-.14.212-.335.212-.581h1.099c-.008 1.092-.635 1.638-1.881 1.638zm-8.025 13.851v1.934h-1.149v-.92H49.78v.92h-1.149v-1.934h.174c.264-.006.447-.161.547-.468.1-.306.164-.742.19-1.308l.056-1.474h3.717v3.25h.61zm-3.265-1.688a7.22 7.22 0 01-.103 1.062c-.048.274-.14.483-.278.626h1.8v-2.235h-1.395l-.024.547zm6.04 2.766a2.61 2.61 0 01-1.212-.278 2.126 2.126 0 01-.832-.784 2.15 2.15 0 01-.301-1.134c0-.422.1-.8.3-1.133.201-.333.479-.592.833-.777.36-.19.763-.285 1.212-.285.45 0 .851.095 1.205.285.354.185.631.444.832.777.201.333.301.71.301 1.133 0 .423-.1.8-.3 1.134a2.14 2.14 0 01-.833.784 2.562 2.562 0 01-1.205.278zm0-1.015c.317 0 .576-.106.777-.317.206-.217.31-.505.31-.864 0-.36-.104-.644-.31-.856a1.01 1.01 0 00-.777-.325c-.317 0-.578.109-.784.325-.206.212-.31.497-.31.856 0 .36.104.647.31.864.206.211.467.317.784.317zm7.35.951v-2.552l-1.276 2.14h-.523l-1.245-2.148v2.56H59.89v-4.264h1.291l1.364 2.465 1.45-2.465h1.157l.016 4.264H64.05z" fill="#fff"/><path d="M11.451 1l13.365 13.314H1v20.369h25.757" stroke="#fff" stroke-width="1.981" stroke-linecap="round" stroke-linejoin="round"/></svg>