<svg width="1079" height="852" fill="none" xmlns="http://www.w3.org/2000/svg"><path d="M894.068 133.1c-20.452-48.942 2.643-105.197 51.585-125.649C994.595-13 1050.85 10.095 1071.3 59.037c20.45 48.941-2.64 105.196-51.58 125.648-48.946 20.452-105.2-2.643-125.652-51.585z" fill="#957163" fill-opacity=".12"/><path d="M647.122 475.951c-39.26-93.948 5.074-201.934 99.022-241.193 93.948-39.26 201.934 5.074 241.194 99.022 39.262 93.948-5.075 201.934-99.023 241.194-93.948 39.259-201.934-5.075-241.193-99.023z" fill="#957163" fill-opacity=".1"/><path d="M22.158 676.186C-38.66 530.647 30.02 363.36 175.56 302.542c145.54-60.819 312.826 7.861 373.645 153.401 60.818 145.539-7.862 312.825-153.401 373.644-145.54 60.819-312.826-7.861-373.645-153.401z" fill="#957163" fill-opacity=".12"/></svg>