<svg width="428" height="361" fill="none" xmlns="http://www.w3.org/2000/svg"><path d="M353.717 55.908c-9.326-19.423-1.141-42.729 18.281-52.055 19.423-9.326 42.728-1.141 52.055 18.281 9.326 19.423 1.141 42.729-18.282 52.055-19.422 9.326-42.728 1.141-52.054-18.281z" fill="#957163" fill-opacity=".12"/><path d="M260.759 200.181c-17.902-37.284-2.191-82.021 35.093-99.923 37.283-17.903 82.02-2.191 99.923 35.092 17.902 37.284 2.191 82.021-35.093 99.923-37.283 17.903-82.02 2.192-99.923-35.092z" fill="#957163" fill-opacity=".1"/><path d="M11.458 294.558C-16.275 236.8 8.064 167.495 65.822 139.762c57.758-27.734 127.062-3.395 154.796 54.363 27.733 57.758 3.394 127.063-54.364 154.796-57.758 27.734-127.062 3.395-154.796-54.363z" fill="#957163" fill-opacity=".12"/></svg>