<svg width="930" height="783" fill="none" xmlns="http://www.w3.org/2000/svg"><path d="M768.148 121.388c-20.249-42.171-2.478-92.773 39.693-113.022 42.171-20.25 92.772-2.478 113.021 39.693 20.25 42.17 2.479 92.772-39.692 113.021-42.171 20.249-92.772 2.479-113.022-39.692z" fill="#957163" fill-opacity=".12"/><path d="M566.316 434.637c-38.87-80.951-4.757-178.085 76.194-216.955 80.951-38.871 178.085-4.758 216.955 76.193 38.87 80.951 4.757 178.085-76.193 216.955-80.951 38.87-178.085 4.757-216.956-76.193z" fill="#957163" fill-opacity=".1"/><path d="M25.03 639.549c-60.216-125.405-7.37-275.88 118.035-336.096 125.405-60.216 275.88-7.37 336.096 118.035 60.216 125.405 7.37 275.88-118.035 336.096-125.405 60.216-275.88 7.37-336.096-118.035z" fill="#957163" fill-opacity=".12"/></svg>