<svg width="1079" height="852" viewBox="0 0 1079 852" fill="none" xmlns="http://www.w3.org/2000/svg">
<path d="M894.068 133.1C873.616 84.158 896.711 27.9032 945.653 7.45129C994.595 -13.0007 1050.85 10.0949 1071.3 59.0366C1091.75 107.978 1068.66 164.233 1019.72 184.685C970.774 205.137 914.52 182.042 894.068 133.1Z" fill="#957163" fill-opacity="0.12"/>
<path d="M647.122 475.951C607.862 382.003 652.196 274.017 746.144 234.758C840.092 195.498 948.078 239.832 987.338 333.78C1026.6 427.728 982.263 535.714 888.315 574.974C794.367 614.233 686.381 569.899 647.122 475.951Z" fill="#957163" fill-opacity="0.1"/>
<path d="M22.1581 676.186C-38.6605 530.647 30.0194 363.36 175.559 302.542C321.099 241.723 488.385 310.403 549.204 455.943C610.022 601.482 541.342 768.768 395.803 829.587C250.263 890.406 82.9767 821.726 22.1581 676.186Z" fill="#957163" fill-opacity="0.12"/>
</svg>
