<svg width="329" height="340" fill="none" xmlns="http://www.w3.org/2000/svg"><path d="M268.53 51.827c-10.426-14.897-6.872-35.432 7.939-45.866 14.81-10.434 35.269-6.816 45.695 8.08 10.427 14.898 6.873 35.433-7.938 45.867-14.811 10.434-35.269 6.816-45.696-8.081zm-55.825 133.066c-18.654-26.653-12.295-63.393 14.203-82.061 26.498-18.668 63.102-12.195 81.756 14.458 18.655 26.653 12.296 63.392-14.202 82.061-26.499 18.668-63.102 12.195-81.757-14.458zM17.85 297.584c-31.006-44.3-20.437-105.365 23.606-136.393 44.043-31.028 104.881-20.27 135.887 24.03 31.005 44.299 20.436 105.364-23.607 136.392-44.042 31.029-104.88 20.27-135.886-24.029z" fill="#957163" fill-opacity=".07"/></svg>